<?xml version="1.0" standalone="no"?>
<!DOCTYPE svg PUBLIC "-//W3C//DTD SVG 20010904//EN"
 "http://www.w3.org/TR/2001/REC-SVG-20010904/DTD/svg10.dtd">
<svg version="1.0" xmlns="http://www.w3.org/2000/svg"
 width="512.000000pt" height="512.000000pt" viewBox="0 0 512.000000 512.000000"
 preserveAspectRatio="xMidYMid meet">
<metadata>
Created by potrace 1.11, written by Peter Selinger 2001-2013
</metadata>
<g transform="translate(0.000000,512.000000) scale(0.100000,-0.100000)"
fill="#000000" stroke="none">
<path d="M305 5099 c-139 -48 -237 -147 -285 -288 -20 -60 -20 -70 -20 -2251
0 -2181 0 -2191 20 -2251 48 -142 146 -241 288 -288 l61 -21 2191 0 c2181 0
2191 0 2251 20 142 48 241 146 288 288 l21 61 0 2191 0 2191 -21 61 c-47 142
-146 240 -288 288 -60 20 -70 20 -2253 20 -2183 -1 -2193 -1 -2253 -21z m1665
-1203 c88 -19 218 -80 277 -130 23 -20 58 -59 79 -88 35 -47 38 -56 42 -136 8
-147 -30 -257 -124 -360 l-52 -57 -54 27 c-81 42 -151 67 -288 101 -319 79
-530 7 -727 -247 -66 -85 -116 -187 -165 -338 -42 -129 -43 -137 -42 -258 1
-106 5 -139 28 -215 33 -108 67 -172 123 -236 83 -91 170 -133 314 -149 163
-19 475 23 721 96 20 6 49 -53 74 -150 30 -114 -1 -335 -52 -373 -32 -23 -383
-133 -505 -157 -177 -36 -283 -41 -404 -22 -335 55 -571 172 -714 355 -55 70
-133 234 -155 323 -41 172 -43 362 -5 593 93 562 343 1051 632 1237 152 97
344 172 512 199 80 13 400 3 485 -15z m1187 -19 c56 -7 104 -15 106 -17 3 -3
28 -111 56 -240 72 -323 259 -1116 330 -1395 l58 -230 12 45 c136 495 307
1195 402 1645 16 77 31 149 34 161 4 18 16 22 99 32 120 15 353 15 466 1 l86
-11 -82 -317 c-94 -368 -195 -728 -289 -1031 -173 -558 -394 -1214 -417 -1236
-7 -7 -51 -24 -98 -39 -155 -50 -380 -45 -526 11 -50 19 -35 -19 -168 420 -95
312 -222 752 -316 1094 -81 296 -280 1083 -275 1089 3 2 46 9 97 16 122 17
298 17 425 2z"/>
</g>
</svg>
